<svg width="3960" height="225" viewBox="0 0 3960 225" fill="none" xmlns="http://www.w3.org/2000/svg">
<path d="M2789.84 56.2C2798.8 56.2 2807.04 57.32 2814.54 59.56C2822.04 61.688 2828.32 65.216 2833.36 70.144C2838.4 74.96 2841.87 81.176 2843.77 88.792C2845.68 96.408 2845.45 105.704 2843.1 116.68C2840.41 129.448 2836.21 139.864 2830.5 147.928C2824.9 155.88 2818.46 162.096 2811.18 166.576C2804.01 171.056 2796.28 174.08 2788 175.648C2779.82 177.216 2771.76 178 2763.8 178H2716.93C2714.8 178 2713.91 177.272 2714.24 175.816C2714.69 174.584 2715.98 173.632 2718.11 172.96C2720.01 172.4 2721.36 171.168 2722.14 169.264C2723.04 167.36 2723.82 164.784 2724.49 161.536L2743.48 72.664C2744.15 69.304 2744.48 66.728 2744.48 64.936C2744.48 63.032 2743.59 61.8 2741.8 61.24C2740.9 60.904 2740.17 60.568 2739.61 60.232C2739.05 59.784 2738.88 59.224 2739.11 58.552C2739.44 56.984 2740.73 56.2 2742.97 56.2H2789.84ZM2807.82 116.68C2810.06 106.376 2811.18 97.864 2811.18 91.144C2811.18 84.424 2810.28 79.048 2808.49 75.016C2806.81 70.984 2804.24 68.184 2800.76 66.616C2797.29 64.936 2793.09 64.096 2788.16 64.096H2779.76L2758.26 164.56C2757.7 166.8 2757.7 168.312 2758.26 169.096C2758.93 169.768 2760.33 170.104 2762.46 170.104H2765.65C2770.58 170.104 2775.12 169.096 2779.26 167.08C2783.52 165.064 2787.44 161.928 2791.02 157.672C2794.6 153.304 2797.8 147.76 2800.6 141.04C2803.4 134.32 2805.8 126.2 2807.82 116.68ZM2907.06 80.056C2915.24 79.496 2922.01 80.392 2927.39 82.744C2932.77 85.096 2936.8 88.176 2939.49 91.984C2942.29 95.792 2943.74 100.048 2943.85 104.752C2944.08 109.456 2943.13 113.936 2941 118.192C2939.77 120.88 2937.81 123.568 2935.12 126.256C2932.43 128.832 2929.18 131.184 2925.37 133.312C2921.68 135.328 2917.48 137.008 2912.77 138.352C2908.18 139.584 2903.37 140.2 2898.33 140.2C2895.64 140.2 2892.95 140.032 2890.26 139.696C2887.57 139.36 2884.83 138.744 2882.03 137.848C2882.93 146.248 2885.73 152.52 2890.43 156.664C2895.13 160.696 2901.13 162.712 2908.41 162.712C2914.57 162.712 2921.12 161.312 2928.06 158.512C2929.85 157.728 2931.2 157.784 2932.09 158.68C2932.77 159.688 2932.37 161.032 2930.92 162.712C2929.57 164.056 2927.73 165.736 2925.37 167.752C2923.02 169.656 2920.11 171.56 2916.64 173.464C2913.28 175.256 2909.41 176.824 2905.05 178.168C2900.68 179.512 2895.81 180.184 2890.43 180.184C2883.6 180.184 2877.44 179.064 2871.95 176.824C2866.57 174.472 2862.09 171.28 2858.51 167.248C2855.04 163.104 2852.57 158.176 2851.12 152.464C2849.66 146.752 2849.44 140.48 2850.45 133.648C2851.45 126.368 2853.64 119.592 2857 113.32C2860.47 107.048 2864.73 101.504 2869.77 96.688C2874.92 91.872 2880.69 88.008 2887.07 85.096C2893.45 82.184 2900.12 80.504 2907.06 80.056ZM2917.98 111.136C2919.1 108.672 2919.77 106.208 2920 103.744C2920.22 101.168 2920.05 98.872 2919.49 96.856C2918.93 94.728 2917.93 92.992 2916.47 91.648C2915.13 90.304 2913.33 89.576 2911.09 89.464C2908.07 89.24 2904.88 90.248 2901.52 92.488C2898.27 94.728 2895.25 97.696 2892.45 101.392C2889.65 105.088 2887.24 109.4 2885.22 114.328C2883.32 119.144 2882.2 124.072 2881.86 129.112C2883.09 129.336 2884.33 129.504 2885.56 129.616C2886.9 129.728 2888.25 129.784 2889.59 129.784C2892.17 129.784 2894.8 129.504 2897.49 128.944C2900.17 128.384 2902.75 127.376 2905.21 125.92C2907.79 124.464 2910.14 122.56 2912.27 120.208C2914.51 117.856 2916.41 114.832 2917.98 111.136ZM3007.03 84.928C3003.34 85.152 2999.87 86.832 2996.62 89.968C2993.48 92.992 2990.74 96.856 2988.39 101.56C2986.15 106.264 2984.41 111.472 2983.18 117.184C2981.95 122.896 2981.5 128.552 2981.83 134.152C2982.06 138.408 2982.9 142.216 2984.35 145.576C2985.81 148.936 2987.77 151.792 2990.23 154.144C2992.81 156.384 2995.78 158.12 2999.14 159.352C3002.5 160.584 3006.14 161.2 3010.06 161.2C3014.87 161.2 3020.03 160.248 3025.51 158.344C3027.53 157.672 3028.87 157.728 3029.55 158.512C3030.22 159.52 3029.83 160.864 3028.37 162.544C3027.14 163.888 3025.29 165.568 3022.83 167.584C3020.47 169.6 3017.56 171.56 3014.09 173.464C3010.73 175.256 3006.87 176.824 3002.5 178.168C2998.13 179.512 2993.26 180.184 2987.88 180.184C2980.94 180.184 2974.78 179.008 2969.4 176.656C2964.03 174.192 2959.6 170.832 2956.13 166.576C2952.66 162.208 2950.19 157.112 2948.74 151.288C2947.39 145.352 2947.23 138.912 2948.23 131.968C2949.13 125.584 2951.2 119.312 2954.45 113.152C2957.7 106.992 2961.95 101.504 2967.22 96.688C2972.48 91.872 2978.53 87.952 2985.36 84.928C2992.31 81.792 2999.81 80.168 3007.87 80.056C3015.27 79.832 3021.31 80.616 3026.02 82.408C3030.72 84.088 3034.31 86.272 3036.77 88.96C3039.23 91.648 3040.75 94.616 3041.31 97.864C3041.87 101 3041.7 103.968 3040.8 106.768C3039.91 109.568 3038.39 111.92 3036.27 113.824C3034.14 115.728 3031.73 116.792 3029.04 117.016C3024.9 117.24 3021.93 116.624 3020.14 115.168C3018.46 113.6 3017.39 111.584 3016.95 109.12C3016.5 106.656 3016.39 103.968 3016.61 101.056C3016.95 98.144 3017 95.456 3016.78 92.992C3016.55 90.528 3015.77 88.512 3014.43 86.944C3013.08 85.376 3010.62 84.704 3007.03 84.928ZM3099.34 80.056C3107.52 79.496 3114.29 80.392 3119.67 82.744C3125.05 85.096 3129.08 88.176 3131.77 91.984C3134.57 95.792 3136.02 100.048 3136.13 104.752C3136.36 109.456 3135.41 113.936 3133.28 118.192C3132.05 120.88 3130.09 123.568 3127.4 126.256C3124.71 128.832 3121.46 131.184 3117.65 133.312C3113.96 135.328 3109.76 137.008 3105.05 138.352C3100.46 139.584 3095.65 140.2 3090.61 140.2C3087.92 140.2 3085.23 140.032 3082.54 139.696C3079.85 139.36 3077.11 138.744 3074.31 137.848C3075.21 146.248 3078.01 152.52 3082.71 156.664C3087.41 160.696 3093.41 162.712 3100.69 162.712C3106.85 162.712 3113.4 161.312 3120.34 158.512C3122.13 157.728 3123.48 157.784 3124.37 158.68C3125.05 159.688 3124.65 161.032 3123.2 162.712C3121.85 164.056 3120.01 165.736 3117.65 167.752C3115.3 169.656 3112.39 171.56 3108.92 173.464C3105.56 175.256 3101.69 176.824 3097.33 178.168C3092.96 179.512 3088.09 180.184 3082.71 180.184C3075.88 180.184 3069.72 179.064 3064.23 176.824C3058.85 174.472 3054.37 171.28 3050.79 167.248C3047.32 163.104 3044.85 158.176 3043.4 152.464C3041.94 146.752 3041.72 140.48 3042.73 133.648C3043.73 126.368 3045.92 119.592 3049.28 113.32C3052.75 107.048 3057.01 101.504 3062.05 96.688C3067.2 91.872 3072.97 88.008 3079.35 85.096C3085.73 82.184 3092.4 80.504 3099.34 80.056ZM3110.26 111.136C3111.38 108.672 3112.05 106.208 3112.28 103.744C3112.5 101.168 3112.33 98.872 3111.77 96.856C3111.21 94.728 3110.21 92.992 3108.75 91.648C3107.41 90.304 3105.61 89.576 3103.37 89.464C3100.35 89.24 3097.16 90.248 3093.8 92.488C3090.55 94.728 3087.53 97.696 3084.73 101.392C3081.93 105.088 3079.52 109.4 3077.5 114.328C3075.6 119.144 3074.48 124.072 3074.14 129.112C3075.37 129.336 3076.61 129.504 3077.84 129.616C3079.18 129.728 3080.53 129.784 3081.87 129.784C3084.45 129.784 3087.08 129.504 3089.77 128.944C3092.45 128.384 3095.03 127.376 3097.49 125.92C3100.07 124.464 3102.42 122.56 3104.55 120.208C3106.79 117.856 3108.69 114.832 3110.26 111.136ZM3245.4 164.728C3247.64 164.28 3248.81 164.616 3248.92 165.736C3249.04 166.408 3248.81 167.08 3248.25 167.752C3247.8 168.312 3247.3 168.872 3246.74 169.432C3243.83 172.008 3239.96 174.472 3235.15 176.824C3230.44 179.064 3225.12 180.184 3219.19 180.184C3212.8 180.184 3208.83 178.728 3207.26 175.816C3205.69 172.904 3205.58 168.312 3206.92 162.04L3211.46 141.208L3215.83 120.208C3216.5 116.96 3217 113.88 3217.34 110.968C3217.79 107.944 3217.79 105.312 3217.34 103.072C3217 100.72 3216.16 98.872 3214.82 97.528C3213.48 96.072 3211.4 95.344 3208.6 95.344C3205.02 95.344 3201.66 96.968 3198.52 100.216C3195.39 103.464 3192.48 107.608 3189.79 112.648C3187.21 117.688 3184.86 123.288 3182.73 129.448C3180.6 135.608 3178.7 141.544 3177.02 147.256C3175.45 152.968 3174.16 158.12 3173.16 162.712C3172.15 167.304 3171.42 170.608 3170.97 172.624L3171.14 171.448L3170.3 175.144C3170.08 177.048 3168.96 178 3166.94 178H3141.07C3138.72 178 3137.82 176.88 3138.38 174.64L3147.45 132.136L3153.84 101.392C3154.4 98.48 3154.28 96.576 3153.5 95.68C3152.72 94.784 3150.92 94.728 3148.12 95.512C3146 95.96 3144.88 95.624 3144.76 94.504C3144.65 93.384 3145.38 92.152 3146.95 90.808C3149.75 88.232 3153.56 85.824 3158.37 83.584C3163.19 81.232 3168.56 80.056 3174.5 80.056C3180.77 80.056 3184.69 81.512 3186.26 84.424C3187.94 87.336 3188.11 91.928 3186.76 98.2L3183.07 115.336C3184.97 111.08 3187.21 106.88 3189.79 102.736C3192.36 98.48 3195.33 94.672 3198.69 91.312C3202.16 87.952 3206.03 85.264 3210.28 83.248C3214.54 81.12 3219.3 80.056 3224.56 80.056C3236.32 80.056 3243.88 83.472 3247.24 90.304C3250.6 97.136 3250.83 107.104 3247.92 120.208L3247.75 121.216L3239.68 158.848C3239.12 161.76 3239.24 163.664 3240.02 164.56C3240.8 165.456 3242.6 165.512 3245.4 164.728ZM3320.27 82.24C3321.5 82.24 3322.23 82.52 3322.45 83.08C3322.79 83.64 3322.79 84.648 3322.45 86.104C3322.11 87.56 3321.67 88.624 3321.11 89.296C3320.66 89.856 3319.82 90.136 3318.59 90.136H3308.67L3301.95 121.216L3293.89 158.848C3293.33 161.76 3293.44 163.664 3294.23 164.56C3295.01 165.456 3296.8 165.512 3299.6 164.728C3300.83 164.504 3301.67 164.448 3302.12 164.56C3302.57 164.672 3302.85 165.064 3302.96 165.736C3303.19 166.408 3303.02 167.08 3302.46 167.752C3302.01 168.312 3301.51 168.872 3300.95 169.432C3298.03 172.008 3294.17 174.472 3289.35 176.824C3284.65 179.064 3279.33 180.184 3273.39 180.184C3267.01 180.184 3263.03 178.728 3261.47 175.816C3259.9 172.904 3259.79 168.312 3261.13 162.04L3269.7 121.216L3276.75 90.136H3272.89C3271.66 90.136 3270.87 89.856 3270.54 89.296C3270.31 88.624 3270.31 87.56 3270.54 86.104C3271.1 83.528 3272.5 82.24 3274.74 82.24H3278.6L3280.95 71.488C3281.51 69.584 3282.63 68.632 3284.31 68.632C3287.56 68.632 3290.64 68.24 3293.55 67.456C3296.58 66.56 3299.27 65.608 3301.62 64.6C3303.97 63.592 3305.99 62.696 3307.67 61.912C3309.35 61.128 3310.58 60.736 3311.36 60.736C3312.26 60.736 3312.99 60.96 3313.55 61.408C3314.22 61.744 3314.44 62.584 3314.22 63.928L3310.35 82.24H3320.27ZM3401.81 80.056C3406.18 80.056 3409.54 80.896 3411.89 82.576C3414.35 84.256 3416.03 86.384 3416.93 88.96C3417.94 91.424 3418.16 94.112 3417.6 97.024C3417.15 99.936 3416.14 102.68 3414.58 105.256C3413.12 107.72 3411.22 109.792 3408.86 111.472C3406.51 113.04 3403.94 113.768 3401.14 113.656C3398.67 113.544 3396.82 113.096 3395.59 112.312C3394.47 111.416 3393.63 110.296 3393.07 108.952C3392.62 107.608 3392.34 106.208 3392.23 104.752C3392.23 103.184 3392.12 101.784 3391.9 100.552C3391.67 99.208 3391.17 98.144 3390.38 97.36C3389.6 96.464 3388.31 96.016 3386.52 96.016C3383.83 96.016 3381.14 97.808 3378.46 101.392C3375.77 104.864 3373.19 109.288 3370.73 114.664C3368.26 120.04 3365.97 125.92 3363.84 132.304C3361.71 138.688 3359.81 144.848 3358.13 150.784C3356.56 156.608 3355.22 161.76 3354.1 166.24C3353.09 170.72 3352.42 173.688 3352.08 175.144C3351.86 177.048 3350.74 178 3348.72 178H3322.85C3320.5 178 3319.6 176.88 3320.16 174.64L3329.23 132.136L3335.62 101.392C3336.18 98.48 3336.06 96.576 3335.28 95.68C3334.5 94.784 3332.7 94.728 3329.9 95.512C3327.78 95.96 3326.66 95.624 3326.54 94.504C3326.43 93.384 3327.16 92.152 3328.73 90.808C3331.53 88.232 3335.34 85.824 3340.15 83.584C3344.97 81.232 3350.34 80.056 3356.28 80.056C3362.55 80.056 3366.47 81.512 3368.04 84.424C3369.72 87.336 3369.89 91.928 3368.54 98.2L3364.01 119.368C3366.02 114.328 3368.26 109.456 3370.73 104.752C3373.3 99.936 3376.1 95.736 3379.13 92.152C3382.26 88.456 3385.68 85.544 3389.38 83.416C3393.18 81.176 3397.33 80.056 3401.81 80.056ZM3512.13 145.408L3509.27 158.848C3508.82 161.088 3508.77 162.712 3509.1 163.72C3509.44 164.728 3510.34 165.232 3511.79 165.232C3512.58 165.232 3513.64 165.064 3514.98 164.728C3517.22 164.28 3518.4 164.616 3518.51 165.736C3518.62 166.856 3517.9 168.088 3516.33 169.432C3513.53 172.008 3509.72 174.472 3504.9 176.824C3500.09 179.064 3494.71 180.184 3488.78 180.184C3485.64 180.184 3483.12 179.848 3481.22 179.176C3479.31 178.504 3477.91 177.496 3477.02 176.152C3476.12 174.696 3475.62 172.904 3475.5 170.776C3475.5 168.648 3475.78 166.128 3476.34 163.216C3472.76 168.256 3468.39 172.344 3463.24 175.48C3458.09 178.616 3451.82 180.184 3444.42 180.184C3437.59 180.184 3431.82 178.84 3427.12 176.152C3422.53 173.464 3418.94 169.712 3416.37 164.896C3413.9 159.968 3412.56 154.088 3412.34 147.256C3412.11 140.424 3413.01 132.92 3415.02 124.744C3416.82 117.576 3419.39 111.248 3422.75 105.76C3426.22 100.16 3430.2 95.456 3434.68 91.648C3439.27 87.84 3444.26 84.984 3449.63 83.08C3455.01 81.064 3460.55 80.056 3466.26 80.056C3472.65 80.056 3477.97 81.288 3482.22 83.752C3486.48 86.216 3489.39 90.864 3490.96 97.696L3519.69 82.912C3521.14 82.352 3522.32 82.184 3523.22 82.408C3524.78 82.744 3525.29 84.088 3524.73 86.44L3512.3 145.408H3512.13ZM3459.04 166.912C3464.75 166.576 3469.79 162.936 3474.16 155.992C3478.53 148.936 3481.94 138.072 3484.41 123.4C3486.42 111.752 3486.14 103.24 3483.57 97.864C3480.99 92.488 3476.85 89.968 3471.14 90.304C3468.34 90.528 3465.65 91.76 3463.07 94C3460.61 96.128 3458.31 99.04 3456.18 102.736C3454.06 106.432 3452.15 110.744 3450.47 115.672C3448.9 120.6 3447.56 125.92 3446.44 131.632C3444.2 143.392 3444.37 152.352 3446.94 158.512C3449.52 164.56 3453.55 167.36 3459.04 166.912ZM3570.69 54.016C3576.96 54.016 3580.88 55.472 3582.45 58.384C3584.13 61.296 3584.3 65.888 3582.96 72.16L3574.22 112.984L3572.37 121.216H3572.54L3564.48 158.848C3563.92 161.76 3564.03 163.664 3564.81 164.56C3565.6 165.456 3567.39 165.512 3570.19 164.728C3572.32 164.28 3573.44 164.616 3573.55 165.736C3573.66 166.408 3573.49 167.08 3573.04 167.752C3572.6 168.312 3572.09 168.872 3571.53 169.432C3570.08 170.664 3568.34 171.952 3566.32 173.296C3564.42 174.528 3562.29 175.648 3559.94 176.656C3557.59 177.664 3555.07 178.504 3552.38 179.176C3549.69 179.848 3546.89 180.184 3543.98 180.184C3537.6 180.184 3533.56 178.728 3531.88 175.816C3530.32 172.904 3530.2 168.312 3531.55 162.04L3540.28 121.216L3546.84 90.304L3550.03 75.352C3550.59 72.44 3550.48 70.536 3549.69 69.64C3548.91 68.744 3547.12 68.688 3544.32 69.472C3542.19 69.92 3541.07 69.584 3540.96 68.464C3540.84 67.344 3541.57 66.112 3543.14 64.768C3545.94 62.192 3549.75 59.784 3554.56 57.544C3559.38 55.192 3564.76 54.016 3570.69 54.016ZM3630.25 40.744C3635.85 40.744 3640.27 42.312 3643.52 45.448C3646.77 48.584 3647.89 52.504 3646.88 57.208C3646.43 59.448 3645.43 61.576 3643.86 63.592C3642.4 65.608 3640.61 67.344 3638.48 68.8C3636.35 70.256 3633.95 71.432 3631.26 72.328C3628.68 73.112 3625.99 73.504 3623.19 73.504C3617.59 73.504 3613.17 71.936 3609.92 68.8C3606.67 65.664 3605.5 61.8 3606.39 57.208C3606.95 54.856 3607.96 52.728 3609.42 50.824C3610.87 48.808 3612.67 47.072 3614.79 45.616C3617.03 44.048 3619.44 42.872 3622.02 42.088C3624.71 41.192 3627.45 40.744 3630.25 40.744ZM3624.2 80.056C3630.47 80.056 3634.39 81.512 3635.96 84.424C3637.64 87.336 3637.81 91.928 3636.47 98.2L3631.59 121.216L3623.53 158.848C3622.97 161.76 3623.08 163.664 3623.87 164.56C3624.65 165.456 3626.44 165.512 3629.24 164.728C3631.37 164.28 3632.49 164.616 3632.6 165.736C3632.71 166.408 3632.55 167.08 3632.1 167.752C3631.65 168.312 3631.15 168.872 3630.59 169.432C3629.13 170.664 3627.39 171.952 3625.38 173.296C3623.47 174.528 3621.35 175.648 3618.99 176.656C3616.64 177.664 3614.12 178.504 3611.43 179.176C3608.75 179.848 3605.95 180.184 3603.03 180.184C3596.65 180.184 3592.62 178.728 3590.94 175.816C3589.37 172.904 3589.26 168.312 3590.6 162.04L3599.34 121.216L3603.54 101.392C3604.1 98.48 3603.99 96.576 3603.2 95.68C3602.42 94.784 3600.63 94.728 3597.83 95.512C3595.7 95.96 3594.58 95.624 3594.47 94.504C3594.35 93.384 3595.08 92.152 3596.65 90.808C3599.45 88.232 3603.26 85.824 3608.07 83.584C3612.89 81.232 3618.27 80.056 3624.2 80.056ZM3742.62 82.24C3743.86 82.24 3744.64 82.632 3744.98 83.416C3745.31 84.088 3744.86 84.984 3743.63 86.104L3666.52 161.368C3668.87 160.92 3671.22 160.696 3673.58 160.696C3676.04 160.696 3678.56 160.752 3681.14 160.864C3683.82 160.976 3686.57 161.088 3689.37 161.2C3692.28 161.312 3695.3 161.256 3698.44 161.032C3702.14 160.808 3704.94 159.856 3706.84 158.176C3708.86 156.496 3710.65 154.704 3712.22 152.8C3713.78 150.896 3715.41 149.104 3717.09 147.424C3718.77 145.744 3721.18 144.792 3724.31 144.568C3727.9 144.344 3730.64 145.072 3732.54 146.752C3734.56 148.32 3735.79 150.448 3736.24 153.136C3736.8 155.824 3736.58 158.736 3735.57 161.872C3734.67 165.008 3733.05 167.92 3730.7 170.608C3728.46 173.296 3725.49 175.592 3721.79 177.496C3718.21 179.288 3713.95 180.184 3709.02 180.184C3703.42 180.184 3697.71 179.512 3691.89 178.168C3686.18 176.936 3680.69 175.816 3675.42 174.808C3670.27 173.688 3665.57 173.128 3661.31 173.128C3657.06 173.016 3653.58 174.192 3650.9 176.656L3650.39 177.16C3650.06 177.72 3649.44 178 3648.54 178H3637.62C3636.28 178 3635.5 177.608 3635.27 176.824C3634.94 176.04 3635.38 175.088 3636.62 173.968L3710.03 103.408H3682.48C3679.68 103.408 3677.1 103.576 3674.75 103.912C3672.51 104.248 3670.38 104.92 3668.37 105.928C3666.35 106.936 3664.45 108.392 3662.66 110.296C3660.98 112.088 3659.18 114.44 3657.28 117.352C3656.27 119.144 3654.82 120.04 3652.91 120.04C3651.68 120.04 3650.9 119.704 3650.56 119.032C3650.22 118.36 3650.34 117.464 3650.9 116.344C3651.68 114.664 3652.46 112.984 3653.25 111.304C3654.03 109.512 3654.93 107.44 3655.94 105.088C3656.94 102.624 3658.12 99.712 3659.46 96.352C3660.81 92.88 3662.43 88.68 3664.34 83.752C3665.12 81.736 3666.58 80.896 3668.7 81.232C3670.27 81.456 3672.46 81.68 3675.26 81.904C3678.06 82.128 3681.98 82.24 3687.02 82.24H3742.62ZM3800.87 80.056C3809.05 79.496 3815.83 80.392 3821.2 82.744C3826.58 85.096 3830.61 88.176 3833.3 91.984C3836.1 95.792 3837.55 100.048 3837.67 104.752C3837.89 109.456 3836.94 113.936 3834.81 118.192C3833.58 120.88 3831.62 123.568 3828.93 126.256C3826.24 128.832 3822.99 131.184 3819.19 133.312C3815.49 135.328 3811.29 137.008 3806.59 138.352C3801.99 139.584 3797.18 140.2 3792.14 140.2C3789.45 140.2 3786.76 140.032 3784.07 139.696C3781.39 139.36 3778.64 138.744 3775.84 137.848C3776.74 146.248 3779.54 152.52 3784.24 156.664C3788.95 160.696 3794.94 162.712 3802.22 162.712C3808.38 162.712 3814.93 161.312 3821.87 158.512C3823.67 157.728 3825.01 157.784 3825.91 158.68C3826.58 159.688 3826.19 161.032 3824.73 162.712C3823.39 164.056 3821.54 165.736 3819.19 167.752C3816.83 169.656 3813.92 171.56 3810.45 173.464C3807.09 175.256 3803.23 176.824 3798.86 178.168C3794.49 179.512 3789.62 180.184 3784.24 180.184C3777.41 180.184 3771.25 179.064 3765.76 176.824C3760.39 174.472 3755.91 171.28 3752.32 167.248C3748.85 163.104 3746.39 158.176 3744.93 152.464C3743.47 146.752 3743.25 140.48 3744.26 133.648C3745.27 126.368 3747.45 119.592 3750.81 113.32C3754.28 107.048 3758.54 101.504 3763.58 96.688C3768.73 91.872 3774.5 88.008 3780.88 85.096C3787.27 82.184 3793.93 80.504 3800.87 80.056ZM3811.79 111.136C3812.91 108.672 3813.59 106.208 3813.81 103.744C3814.03 101.168 3813.87 98.872 3813.31 96.856C3812.75 94.728 3811.74 92.992 3810.28 91.648C3808.94 90.304 3807.15 89.576 3804.91 89.464C3801.88 89.24 3798.69 90.248 3795.33 92.488C3792.08 94.728 3789.06 97.696 3786.26 101.392C3783.46 105.088 3781.05 109.4 3779.03 114.328C3777.13 119.144 3776.01 124.072 3775.67 129.112C3776.91 129.336 3778.14 129.504 3779.37 129.616C3780.71 129.728 3782.06 129.784 3783.4 129.784C3785.98 129.784 3788.61 129.504 3791.3 128.944C3793.99 128.384 3796.56 127.376 3799.03 125.92C3801.6 124.464 3803.95 122.56 3806.08 120.208C3808.32 117.856 3810.23 114.832 3811.79 111.136ZM3945.54 121.048L3937.64 158.68C3937.08 161.592 3937.19 163.496 3937.98 164.392C3938.76 165.288 3940.55 165.344 3943.35 164.56C3945.48 164.112 3946.6 164.448 3946.71 165.568C3946.82 166.688 3946.1 167.92 3944.53 169.264C3941.73 171.84 3937.92 174.304 3933.1 176.656C3928.29 178.896 3922.91 180.016 3916.98 180.016C3910.93 180.016 3907.01 178.728 3905.22 176.152C3903.54 173.464 3903.26 169.264 3904.38 163.552C3900.79 168.48 3896.42 172.512 3891.27 175.648C3886.23 178.672 3880.07 180.184 3872.79 180.184C3865.96 180.184 3860.19 178.84 3855.49 176.152C3850.9 173.464 3847.31 169.712 3844.74 164.896C3842.27 159.968 3840.93 154.088 3840.7 147.256C3840.48 140.424 3841.38 132.92 3843.39 124.744C3845.41 116.68 3848.38 109.68 3852.3 103.744C3856.33 97.808 3860.98 92.936 3866.24 89.128C3871.62 85.32 3877.44 82.744 3883.71 81.4C3889.98 79.944 3896.37 79.72 3902.86 80.728C3907.46 81.624 3910.98 83.416 3913.45 86.104C3915.91 88.68 3917.7 91.816 3918.82 95.512L3921.68 81.568C3922.35 78.32 3922.63 75.856 3922.52 74.176C3922.52 72.496 3921.68 71.376 3920 70.816C3917.98 70.144 3917.14 69.136 3917.48 67.792C3917.82 66.224 3919.05 65.216 3921.18 64.768C3922.63 64.544 3924.59 64.208 3927.06 63.76C3929.52 63.2 3932.32 62.528 3935.46 61.744C3938.59 60.848 3941.9 59.84 3945.37 58.72C3948.95 57.488 3952.48 56.088 3955.95 54.52C3957.18 53.96 3958.08 53.904 3958.64 54.352C3959.2 54.688 3959.37 55.472 3959.14 56.704L3945.54 121.048ZM3887.41 166.912C3892.45 166.576 3896.98 163.664 3901.02 158.176C3905.05 152.576 3908.35 144.064 3910.93 132.64L3911.77 129.112L3912.78 123.4C3914.79 111.752 3914.51 103.24 3911.94 97.864C3909.36 92.488 3905.22 89.968 3899.5 90.304C3896.7 90.528 3894.02 91.76 3891.44 94C3888.98 96.128 3886.68 99.04 3884.55 102.736C3882.42 106.432 3880.52 110.744 3878.84 115.672C3877.27 120.6 3875.93 125.92 3874.81 131.632C3872.57 143.392 3872.74 152.352 3875.31 158.512C3877.89 164.56 3881.92 167.36 3887.41 166.912Z" fill="#FEF7ED"/>
<path d="M123.092 156.96C123.988 157.296 124.66 157.688 125.108 158.136C125.668 158.472 125.836 159.032 125.612 159.816C125.276 161.384 123.988 162.112 121.748 162C119.956 161.776 117.324 161.608 113.852 161.496C110.492 161.384 106.124 161.328 100.748 161.328C95.3715 161.328 90.8915 161.384 87.3075 161.496C83.7235 161.608 80.9795 161.776 79.0755 162C76.8355 162.112 75.8275 161.384 76.0515 159.816C76.4995 158.472 77.6195 157.576 79.4115 157.128C81.4275 156.568 82.6595 155.448 83.1075 153.768C83.6675 151.976 83.8355 149.456 83.6115 146.208L81.5955 123.192H41.2755L35.0595 135.456C31.5875 142.4 30.0755 147.608 30.5235 151.08C30.9715 154.44 33.9955 156.4 39.5955 156.96C41.8355 157.296 42.6755 158.248 42.1155 159.816C41.7795 161.384 40.4915 162.112 38.2515 162C36.4595 161.776 33.7155 161.664 30.0195 161.664C26.4355 161.552 22.1795 161.496 17.2515 161.496C15.1235 161.496 12.8835 161.552 10.5315 161.664C8.17953 161.664 6.05153 161.776 4.14753 162C1.90753 162.112 0.955531 161.384 1.29153 159.816C1.73953 158.472 2.97153 157.52 4.98753 156.96C7.56353 156.4 10.1955 154.384 12.8835 150.912C15.5715 147.44 18.7635 142.288 22.4595 135.456L74.8755 40.032C75.2115 39.136 75.7715 38.52 76.5555 38.184C78.2355 37.624 80.0835 37.792 82.0995 38.688C84.2275 39.472 86.9715 40.144 90.3315 40.704C93.2435 41.152 95.5395 41.488 97.2195 41.712C99.0115 41.824 100.468 41.88 101.588 41.88C103.604 41.88 104.668 42.72 104.78 44.4L118.052 146.208C118.388 149.344 118.836 151.808 119.396 153.6C119.956 155.28 121.188 156.4 123.092 156.96ZM45.3075 115.296H80.9235L75.5475 55.992L45.3075 115.296ZM244.22 148.728C246.46 148.28 247.636 148.616 247.748 149.736C247.86 150.408 247.636 151.08 247.076 151.752C246.628 152.312 246.124 152.872 245.564 153.432C242.652 156.008 238.788 158.472 233.972 160.824C229.268 163.064 223.948 164.184 218.012 164.184C211.628 164.184 207.652 162.728 206.084 159.816C204.516 156.904 204.404 152.312 205.748 146.04L210.284 125.208L214.652 104.208C215.324 100.96 215.828 97.88 216.164 94.968C216.612 91.944 216.612 89.312 216.164 87.072C215.828 84.72 214.988 82.872 213.644 81.528C212.3 80.072 210.228 79.344 207.428 79.344C203.844 79.344 200.484 80.968 197.348 84.216C194.212 87.464 191.3 91.608 188.612 96.648C186.036 101.688 183.684 107.288 181.556 113.448C179.428 119.608 177.524 125.544 175.844 131.256C174.276 136.968 172.988 142.12 171.98 146.712C170.972 151.304 170.244 154.608 169.796 156.624L169.964 155.448L169.124 159.144C168.9 161.048 167.78 162 165.764 162H139.892C137.54 162 136.644 160.88 137.204 158.64L146.276 116.136L152.66 85.392C153.22 82.48 153.108 80.576 152.324 79.68C151.54 78.784 149.748 78.728 146.948 79.512C144.82 79.96 143.7 79.624 143.588 78.504C143.476 77.384 144.204 76.152 145.772 74.808C148.572 72.232 152.38 69.824 157.196 67.584C162.012 65.232 167.388 64.056 173.324 64.056C179.596 64.056 183.516 65.512 185.084 68.424C186.764 71.336 186.932 75.928 185.588 82.2L181.892 99.336C183.796 95.08 186.036 90.88 188.612 86.736C191.188 82.48 194.156 78.672 197.516 75.312C200.988 71.952 204.852 69.264 209.108 67.248C213.364 65.12 218.124 64.056 223.388 64.056C235.148 64.056 242.708 67.472 246.068 74.304C249.428 81.136 249.652 91.104 246.74 104.208L246.572 105.216L238.508 142.848C237.948 145.76 238.06 147.664 238.844 148.56C239.628 149.456 241.42 149.512 244.22 148.728ZM319.094 64.056C326.71 64.056 333.318 65.4 338.918 68.088C344.518 70.664 348.998 74.248 352.358 78.84C355.718 83.32 357.902 88.584 358.91 94.632C359.918 100.68 359.694 107.176 358.238 114.12C356.782 121.064 354.262 127.56 350.678 133.608C347.094 139.656 342.67 144.976 337.406 149.568C332.142 154.048 326.15 157.632 319.43 160.32C312.71 162.896 305.542 164.184 297.926 164.184C290.198 164.184 283.534 162.896 277.934 160.32C272.446 157.632 268.022 154.048 264.662 149.568C261.302 144.976 259.118 139.656 258.11 133.608C257.102 127.56 257.326 121.064 258.782 114.12C260.35 107.176 262.926 100.68 266.51 94.632C270.094 88.584 274.462 83.32 279.614 78.84C284.878 74.248 290.814 70.664 297.422 68.088C304.142 65.4 311.366 64.056 319.094 64.056ZM308.678 70.608C305.43 71.28 302.686 73.072 300.446 75.984C298.318 78.784 296.582 82.312 295.238 86.568C293.894 90.824 292.886 95.64 292.214 101.016C291.542 106.28 291.15 111.768 291.038 117.48C290.926 123.304 291.15 128.792 291.71 133.944C292.27 139.096 293.278 143.52 294.734 147.216C296.19 150.912 298.038 153.712 300.278 155.616C302.518 157.52 305.262 158.192 308.51 157.632C311.758 156.96 314.446 155.224 316.574 152.424C318.702 149.512 320.438 145.928 321.782 141.672C323.238 137.416 324.302 132.656 324.974 127.392C325.646 122.016 326.038 116.472 326.15 110.76C326.262 104.936 325.982 99.504 325.31 94.464C324.75 89.312 323.742 84.888 322.286 81.192C320.942 77.384 319.15 74.528 316.91 72.624C314.67 70.72 311.926 70.048 308.678 70.608ZM469.97 148.728C472.21 148.28 473.386 148.616 473.498 149.736C473.61 150.408 473.386 151.08 472.826 151.752C472.378 152.312 471.874 152.872 471.314 153.432C468.402 156.008 464.538 158.472 459.722 160.824C455.018 163.064 449.698 164.184 443.762 164.184C437.378 164.184 433.402 162.728 431.834 159.816C430.266 156.904 430.154 152.312 431.498 146.04L436.034 125.208L440.402 104.208C441.074 100.96 441.578 97.88 441.914 94.968C442.362 91.944 442.362 89.312 441.914 87.072C441.578 84.72 440.738 82.872 439.394 81.528C438.05 80.072 435.978 79.344 433.178 79.344C429.594 79.344 426.234 80.968 423.098 84.216C419.962 87.464 417.05 91.608 414.362 96.648C411.786 101.688 409.434 107.288 407.306 113.448C405.178 119.608 403.274 125.544 401.594 131.256C400.026 136.968 398.738 142.12 397.73 146.712C396.722 151.304 395.994 154.608 395.546 156.624L395.714 155.448L394.874 159.144C394.65 161.048 393.53 162 391.514 162H365.642C363.29 162 362.394 160.88 362.954 158.64L372.026 116.136L378.41 85.392C378.97 82.48 378.858 80.576 378.074 79.68C377.29 78.784 375.498 78.728 372.698 79.512C370.57 79.96 369.45 79.624 369.338 78.504C369.226 77.384 369.954 76.152 371.522 74.808C374.322 72.232 378.13 69.824 382.946 67.584C387.762 65.232 393.138 64.056 399.074 64.056C405.346 64.056 409.266 65.512 410.834 68.424C412.514 71.336 412.682 75.928 411.338 82.2L407.642 99.336C409.546 95.08 411.786 90.88 414.362 86.736C416.938 82.48 419.906 78.672 423.266 75.312C426.738 71.952 430.602 69.264 434.858 67.248C439.114 65.12 443.874 64.056 449.138 64.056C460.898 64.056 468.458 67.472 471.818 74.304C475.178 81.136 475.402 91.104 472.49 104.208L472.322 105.216L464.258 142.848C463.698 145.76 463.81 147.664 464.594 148.56C465.378 149.456 467.17 149.512 469.97 148.728ZM564.043 63.72C566.843 63.72 568.915 64.392 570.259 65.736C571.603 66.968 572.443 68.648 572.779 70.776C573.115 72.904 573.059 75.256 572.611 77.832C572.163 80.296 571.603 82.816 570.931 85.392C566.339 101.184 560.795 115.8 554.299 129.24C547.915 142.568 540.747 154.048 532.795 163.68C524.955 173.312 516.443 180.816 507.259 186.192C498.075 191.68 488.499 194.424 478.531 194.424C472.707 194.424 468.339 193.248 465.427 190.896C462.515 188.656 460.835 186.024 460.387 183C459.939 180.088 460.555 177.288 462.235 174.6C463.915 171.912 466.435 170.176 469.795 169.392C472.595 168.72 474.891 168.72 476.683 169.392C478.475 170.176 480.099 171.128 481.555 172.248C483.011 173.48 484.467 174.6 485.923 175.608C487.379 176.728 489.171 177.288 491.299 177.288C498.803 177.288 506.643 174.376 514.819 168.552C512.803 152.2 510.619 138.256 508.267 126.72C505.915 115.184 503.563 105.776 501.211 98.496C498.859 91.216 496.619 85.84 494.491 82.368C492.363 78.896 490.459 77.104 488.779 76.992C487.771 76.88 486.819 76.992 485.923 77.328C485.139 77.552 484.411 77.832 483.739 78.168C483.179 78.504 482.675 78.84 482.227 79.176C481.779 79.4 481.387 79.512 481.051 79.512C480.603 79.512 480.323 79.288 480.211 78.84C479.875 78.056 480.435 76.88 481.891 75.312C483.347 73.632 485.307 71.952 487.771 70.272C490.347 68.592 493.203 67.136 496.339 65.904C499.587 64.672 502.779 64.056 505.915 64.056C510.619 64.056 514.539 66.016 517.675 69.936C520.811 73.856 523.499 79.344 525.739 86.4C527.979 93.456 529.883 101.912 531.451 111.768C533.131 121.512 534.867 132.264 536.659 144.024C540.803 137.304 544.611 129.52 548.083 120.672C551.667 111.824 554.747 101.744 557.323 90.432C557.883 87.856 558.107 85.896 557.995 84.552C557.995 83.208 557.827 82.088 557.491 81.192C557.155 80.296 556.707 79.4 556.147 78.504C555.699 77.496 555.307 76.04 554.971 74.136C554.411 70.888 555.139 68.368 557.155 66.576C559.171 64.672 561.467 63.72 564.043 63.72ZM745.826 148.728C748.066 148.28 749.242 148.616 749.354 149.736C749.466 150.856 748.738 152.088 747.17 153.432C744.37 156.008 740.562 158.472 735.746 160.824C730.93 163.064 725.554 164.184 719.618 164.184C713.234 164.184 709.258 162.728 707.69 159.816C706.122 156.904 706.01 152.312 707.354 146.04L711.89 125.208L716.258 104.208C716.93 100.96 717.434 97.88 717.77 94.968C718.218 91.944 718.274 89.312 717.938 87.072C717.602 84.72 716.762 82.872 715.418 81.528C714.074 80.072 712.002 79.344 709.202 79.344C706.066 79.344 703.098 80.632 700.298 83.208C697.498 85.672 694.866 88.92 692.402 92.952C689.938 96.984 687.642 101.576 685.514 106.728C683.498 111.88 681.65 117.032 679.97 122.184C678.402 127.336 677.002 132.32 675.77 137.136C674.65 141.952 673.698 146.096 672.914 149.568L670.898 159.144C670.562 161.048 669.386 162 667.37 162H641.498C639.146 162 638.25 160.88 638.81 158.64L650.402 104.208C651.074 100.96 651.578 97.88 651.914 94.968C652.362 91.944 652.362 89.312 651.914 87.072C651.578 84.72 650.738 82.872 649.394 81.528C648.05 80.072 645.978 79.344 643.178 79.344C639.594 79.344 636.234 80.968 633.098 84.216C629.962 87.464 627.05 91.608 624.362 96.648C621.786 101.688 619.434 107.288 617.306 113.448C615.178 119.608 613.274 125.544 611.594 131.256C610.026 136.968 608.738 142.12 607.73 146.712C606.722 151.304 605.994 154.608 605.546 156.624L605.714 155.448L604.874 159.144C604.65 161.048 603.53 162 601.514 162H575.642C573.29 162 572.394 160.88 572.954 158.64L582.026 116.136L588.41 85.392C588.97 82.48 588.858 80.576 588.074 79.68C587.29 78.784 585.498 78.728 582.698 79.512C580.57 79.96 579.45 79.624 579.338 78.504C579.226 77.384 579.954 76.152 581.522 74.808C584.322 72.232 588.13 69.824 592.946 67.584C597.762 65.232 603.138 64.056 609.074 64.056C615.346 64.056 619.266 65.512 620.834 68.424C622.514 71.336 622.682 75.928 621.338 82.2L617.642 99.336C619.546 95.08 621.786 90.88 624.362 86.736C626.938 82.48 629.906 78.672 633.266 75.312C636.738 71.952 640.602 69.264 644.858 67.248C649.114 65.12 653.874 64.056 659.138 64.056C670.226 64.056 677.506 67.136 680.978 73.296C684.562 79.344 685.346 88.192 683.33 99.84C685.234 95.472 687.474 91.16 690.05 86.904C692.626 82.648 695.594 78.84 698.954 75.48C702.426 72.008 706.29 69.264 710.546 67.248C714.914 65.12 719.73 64.056 724.994 64.056C730.93 64.056 735.746 64.952 739.442 66.744C743.138 68.424 745.882 70.944 747.674 74.304C749.466 77.664 750.362 81.864 750.362 86.904C750.474 91.832 749.802 97.6 748.346 104.208L748.178 105.216L740.114 142.848C739.554 145.76 739.666 147.664 740.45 148.56C741.234 149.456 743.026 149.512 745.826 148.728ZM820.797 64.056C828.413 64.056 835.021 65.4 840.621 68.088C846.221 70.664 850.701 74.248 854.061 78.84C857.421 83.32 859.605 88.584 860.613 94.632C861.621 100.68 861.397 107.176 859.941 114.12C858.485 121.064 855.965 127.56 852.381 133.608C848.797 139.656 844.373 144.976 839.109 149.568C833.845 154.048 827.853 157.632 821.133 160.32C814.413 162.896 807.245 164.184 799.629 164.184C791.901 164.184 785.237 162.896 779.637 160.32C774.149 157.632 769.725 154.048 766.365 149.568C763.005 144.976 760.821 139.656 759.813 133.608C758.805 127.56 759.029 121.064 760.485 114.12C762.053 107.176 764.629 100.68 768.213 94.632C771.797 88.584 776.165 83.32 781.317 78.84C786.581 74.248 792.517 70.664 799.125 68.088C805.845 65.4 813.069 64.056 820.797 64.056ZM810.381 70.608C807.133 71.28 804.389 73.072 802.149 75.984C800.021 78.784 798.285 82.312 796.941 86.568C795.597 90.824 794.589 95.64 793.917 101.016C793.245 106.28 792.853 111.768 792.741 117.48C792.629 123.304 792.853 128.792 793.413 133.944C793.973 139.096 794.981 143.52 796.437 147.216C797.893 150.912 799.741 153.712 801.981 155.616C804.221 157.52 806.965 158.192 810.213 157.632C813.461 156.96 816.149 155.224 818.277 152.424C820.405 149.512 822.141 145.928 823.485 141.672C824.941 137.416 826.005 132.656 826.677 127.392C827.349 122.016 827.741 116.472 827.853 110.76C827.965 104.936 827.685 99.504 827.013 94.464C826.453 89.312 825.445 84.888 823.989 81.192C822.645 77.384 820.853 74.528 818.613 72.624C816.373 70.72 813.629 70.048 810.381 70.608ZM968.738 148.728C970.978 148.28 972.154 148.616 972.266 149.736C972.378 150.408 972.154 151.08 971.594 151.752C971.146 152.312 970.642 152.872 970.082 153.432C967.17 156.008 963.306 158.472 958.49 160.824C953.786 163.064 948.466 164.184 942.53 164.184C936.146 164.184 932.17 162.728 930.602 159.816C929.034 156.904 928.922 152.312 930.266 146.04L933.122 132.6C931.33 136.632 929.258 140.552 926.906 144.36C924.666 148.168 922.09 151.528 919.178 154.44C916.266 157.352 913.018 159.704 909.434 161.496C905.85 163.288 901.874 164.184 897.506 164.184C885.522 164.184 877.682 160.768 873.986 153.936C870.29 147.104 869.842 137.136 872.642 124.032L872.81 123.024L880.874 85.392C881.434 82.48 881.322 80.576 880.538 79.68C879.754 78.784 877.962 78.728 875.162 79.512C873.93 79.736 873.09 79.792 872.642 79.68C872.194 79.568 871.858 79.176 871.634 78.504C871.522 77.832 871.69 77.216 872.138 76.656C872.698 75.984 873.258 75.368 873.818 74.808C876.73 72.232 880.538 69.824 885.242 67.584C890.058 65.232 895.434 64.056 901.37 64.056C907.754 64.056 911.73 65.512 913.298 68.424C914.866 71.336 914.978 75.928 913.634 82.2L905.066 123.024H904.898L904.73 124.032C904.058 127.28 903.498 130.416 903.05 133.44C902.602 136.352 902.49 138.984 902.714 141.336C903.05 143.576 903.778 145.424 904.898 146.88C906.13 148.224 907.978 148.896 910.442 148.896C913.802 148.896 916.938 147.272 919.85 144.024C922.874 140.776 925.618 136.632 928.082 131.592C930.658 126.552 932.954 120.952 934.97 114.792C936.986 108.632 938.722 102.696 940.178 96.984C941.746 91.272 943.034 86.12 944.042 81.528C945.05 76.936 945.778 73.632 946.226 71.616V71.784L947.402 66.24H979.322L971.09 105.216L963.026 142.848C962.466 145.76 962.578 147.664 963.362 148.56C964.146 149.456 965.938 149.512 968.738 148.728ZM1038.03 64.056C1045.53 64.056 1051.58 64.784 1056.17 66.24C1060.88 67.584 1064.46 69.32 1066.93 71.448C1069.39 73.576 1070.85 75.872 1071.29 78.336C1071.74 80.8 1071.52 83.096 1070.62 85.224C1069.73 87.352 1068.21 89.144 1066.09 90.6C1064.07 91.944 1061.77 92.616 1059.2 92.616C1055.84 92.616 1053.32 92.056 1051.64 90.936C1050.07 89.816 1048.95 88.416 1048.28 86.736C1047.61 85.056 1047.16 83.264 1046.93 81.36C1046.82 79.344 1046.49 77.496 1045.93 75.816C1045.48 74.024 1044.58 72.512 1043.24 71.28C1042.01 70.048 1039.93 69.32 1037.02 69.096C1033.33 68.872 1030.19 69.488 1027.61 70.944C1025.04 72.288 1023.02 74.024 1021.57 76.152C1020.22 78.28 1019.49 80.52 1019.38 82.872C1019.27 85.112 1019.77 87.016 1020.89 88.584C1023.13 91.384 1025.99 93.792 1029.46 95.808C1032.93 97.712 1036.52 99.504 1040.21 101.184C1044.02 102.864 1047.72 104.6 1051.3 106.392C1055 108.184 1058.08 110.312 1060.54 112.776C1063.12 115.24 1064.91 118.208 1065.92 121.68C1066.93 125.04 1066.76 129.24 1065.41 134.28C1064.52 137.528 1062.95 140.944 1060.71 144.528C1058.47 148 1055.33 151.192 1051.3 154.104C1047.38 157.016 1042.4 159.424 1036.35 161.328C1030.3 163.232 1022.97 164.184 1014.34 164.184C1006.73 164.184 1000.45 163.4 995.526 161.832C990.71 160.152 986.958 158.136 984.27 155.784C981.582 153.32 979.902 150.688 979.23 147.888C978.558 144.976 978.67 142.288 979.566 139.824C980.35 137.36 981.75 135.288 983.766 133.608C985.894 131.928 988.414 131.032 991.326 130.92C994.574 130.808 996.926 131.424 998.382 132.768C999.95 134.112 1001.01 135.848 1001.57 137.976C1002.25 140.104 1002.64 142.4 1002.75 144.864C1002.97 147.328 1003.42 149.624 1004.09 151.752C1004.88 153.88 1006.05 155.672 1007.62 157.128C1009.3 158.584 1011.88 159.312 1015.35 159.312C1018.6 159.312 1021.45 158.64 1023.92 157.296C1026.38 155.952 1028.34 154.272 1029.8 152.256C1031.37 150.24 1032.43 148.056 1032.99 145.704C1033.55 143.352 1033.49 141.168 1032.82 139.152C1031.93 136.464 1030.08 134.224 1027.28 132.432C1024.59 130.528 1021.45 128.792 1017.87 127.224C1014.4 125.544 1010.81 123.864 1007.12 122.184C1003.42 120.392 1000.17 118.32 997.374 115.968C994.574 113.504 992.502 110.536 991.158 107.064C989.814 103.592 989.702 99.28 990.822 94.128C991.83 89.648 993.678 85.56 996.366 81.864C999.166 78.168 1002.64 75.032 1006.78 72.456C1011.04 69.768 1015.8 67.696 1021.06 66.24C1026.33 64.784 1031.98 64.056 1038.03 64.056Z" fill="#FEF7ED"/>
<path d="M1530.47 172.96C1531.37 173.296 1532.04 173.688 1532.49 174.136C1533.05 174.472 1533.21 175.032 1532.99 175.816C1532.65 177.384 1531.37 178.112 1529.13 178C1527.33 177.776 1524.7 177.608 1521.23 177.496C1517.87 177.384 1513.5 177.328 1508.13 177.328C1502.75 177.328 1498.27 177.384 1494.69 177.496C1491.1 177.608 1488.36 177.776 1486.45 178C1484.21 178.112 1483.21 177.384 1483.43 175.816C1483.88 174.472 1485 173.576 1486.79 173.128C1488.81 172.568 1490.04 171.448 1490.49 169.768C1491.05 167.976 1491.21 165.456 1490.99 162.208L1488.97 139.192H1448.65L1442.44 151.456C1438.97 158.4 1437.45 163.608 1437.9 167.08C1438.35 170.44 1441.37 172.4 1446.97 172.96C1449.21 173.296 1450.05 174.248 1449.49 175.816C1449.16 177.384 1447.87 178.112 1445.63 178C1443.84 177.776 1441.09 177.664 1437.4 177.664C1433.81 177.552 1429.56 177.496 1424.63 177.496C1422.5 177.496 1420.26 177.552 1417.91 177.664C1415.56 177.664 1413.43 177.776 1411.53 178C1409.29 178.112 1408.33 177.384 1408.67 175.816C1409.12 174.472 1410.35 173.52 1412.37 172.96C1414.94 172.4 1417.57 170.384 1420.26 166.912C1422.95 163.44 1426.14 158.288 1429.84 151.456L1482.25 56.032C1482.59 55.136 1483.15 54.52 1483.93 54.184C1485.61 53.624 1487.46 53.792 1489.48 54.688C1491.61 55.472 1494.35 56.144 1497.71 56.704C1500.62 57.152 1502.92 57.488 1504.6 57.712C1506.39 57.824 1507.85 57.88 1508.97 57.88C1510.98 57.88 1512.05 58.72 1512.16 60.4L1525.43 162.208C1525.77 165.344 1526.21 167.808 1526.77 169.6C1527.33 171.28 1528.57 172.4 1530.47 172.96ZM1452.69 131.296H1488.3L1482.93 71.992L1452.69 131.296ZM1641.44 164.728C1643.68 164.28 1644.86 164.616 1644.97 165.736C1645.08 166.408 1644.86 167.08 1644.3 167.752C1643.85 168.312 1643.35 168.872 1642.79 169.432C1639.88 172.008 1636.01 174.472 1631.2 176.824C1626.49 179.064 1621.17 180.184 1615.24 180.184C1608.85 180.184 1604.88 178.728 1603.31 175.816C1601.74 172.904 1601.63 168.312 1602.97 162.04L1605.83 148.6C1604.04 152.632 1601.96 156.552 1599.61 160.36C1597.37 164.168 1594.8 167.528 1591.88 170.44C1588.97 173.352 1585.72 175.704 1582.14 177.496C1578.56 179.288 1574.58 180.184 1570.21 180.184C1558.23 180.184 1550.39 176.768 1546.69 169.936C1543 163.104 1542.55 153.136 1545.35 140.032L1545.52 139.024L1553.58 101.392C1554.14 98.48 1554.03 96.576 1553.24 95.68C1552.46 94.784 1550.67 94.728 1547.87 95.512C1546.64 95.736 1545.8 95.792 1545.35 95.68C1544.9 95.568 1544.56 95.176 1544.34 94.504C1544.23 93.832 1544.4 93.216 1544.84 92.656C1545.4 91.984 1545.96 91.368 1546.52 90.808C1549.44 88.232 1553.24 85.824 1557.95 83.584C1562.76 81.232 1568.14 80.056 1574.08 80.056C1580.46 80.056 1584.44 81.512 1586 84.424C1587.57 87.336 1587.68 91.928 1586.34 98.2L1577.77 139.024H1577.6L1577.44 140.032C1576.76 143.28 1576.2 146.416 1575.76 149.44C1575.31 152.352 1575.2 154.984 1575.42 157.336C1575.76 159.576 1576.48 161.424 1577.6 162.88C1578.84 164.224 1580.68 164.896 1583.15 164.896C1586.51 164.896 1589.64 163.272 1592.56 160.024C1595.58 156.776 1598.32 152.632 1600.79 147.592C1603.36 142.552 1605.66 136.952 1607.68 130.792C1609.69 124.632 1611.43 118.696 1612.88 112.984C1614.45 107.272 1615.74 102.12 1616.75 97.528C1617.76 92.936 1618.48 89.632 1618.93 87.616V87.784L1620.11 82.24H1652.03L1643.8 121.216L1635.73 158.848C1635.17 161.76 1635.28 163.664 1636.07 164.56C1636.85 165.456 1638.64 165.512 1641.44 164.728ZM1719.25 82.24C1720.48 82.24 1721.21 82.52 1721.43 83.08C1721.77 83.64 1721.77 84.648 1721.43 86.104C1721.1 87.56 1720.65 88.624 1720.09 89.296C1719.64 89.856 1718.8 90.136 1717.57 90.136H1707.66L1700.94 121.216L1692.87 158.848C1692.31 161.76 1692.43 163.664 1693.21 164.56C1693.99 165.456 1695.79 165.512 1698.59 164.728C1699.82 164.504 1700.66 164.448 1701.11 164.56C1701.55 164.672 1701.83 165.064 1701.95 165.736C1702.17 166.408 1702 167.08 1701.44 167.752C1700.99 168.312 1700.49 168.872 1699.93 169.432C1697.02 172.008 1693.15 174.472 1688.34 176.824C1683.63 179.064 1678.31 180.184 1672.38 180.184C1665.99 180.184 1662.02 178.728 1660.45 175.816C1658.88 172.904 1658.77 168.312 1660.11 162.04L1668.68 121.216L1675.74 90.136H1671.87C1670.64 90.136 1669.86 89.856 1669.52 89.296C1669.3 88.624 1669.3 87.56 1669.52 86.104C1670.08 83.528 1671.48 82.24 1673.72 82.24H1677.59L1679.94 71.488C1680.5 69.584 1681.62 68.632 1683.3 68.632C1686.55 68.632 1689.63 68.24 1692.54 67.456C1695.56 66.56 1698.25 65.608 1700.6 64.6C1702.95 63.592 1704.97 62.696 1706.65 61.912C1708.33 61.128 1709.56 60.736 1710.35 60.736C1711.24 60.736 1711.97 60.96 1712.53 61.408C1713.2 61.744 1713.43 62.584 1713.2 63.928L1709.34 82.24H1719.25ZM1824.34 164.728C1826.47 164.28 1827.59 164.616 1827.7 165.736C1827.81 166.856 1827.08 168.088 1825.52 169.432C1822.72 172.008 1818.91 174.472 1814.09 176.824C1809.28 179.064 1803.9 180.184 1797.96 180.184C1791.69 180.184 1787.72 178.728 1786.04 175.816C1784.47 172.792 1784.36 168.2 1785.7 162.04L1790.24 141.208L1794.6 120.208C1795.28 116.96 1795.78 113.88 1796.12 110.968C1796.56 107.944 1796.62 105.312 1796.28 103.072C1795.95 100.72 1795.11 98.872 1793.76 97.528C1792.42 96.072 1790.35 95.344 1787.55 95.344C1784.41 95.344 1781.44 96.576 1778.64 99.04C1775.96 101.504 1773.38 104.696 1770.92 108.616C1768.56 112.536 1766.38 117.016 1764.36 122.056C1762.35 126.984 1760.5 132.024 1758.82 137.176C1757.14 142.328 1755.68 147.312 1754.45 152.128C1753.22 156.944 1752.21 161.088 1751.43 164.56L1749.24 175.144C1748.91 177.048 1747.73 178 1745.72 178H1719.84C1717.72 178 1716.82 176.88 1717.16 174.64L1730.43 112.48L1738.49 74.848C1739.05 71.936 1738.94 70.032 1738.16 69.136C1737.37 68.24 1735.58 68.184 1732.78 68.968C1731.55 69.192 1730.71 69.248 1730.26 69.136C1729.81 69.024 1729.48 68.632 1729.25 67.96C1729.14 67.288 1729.31 66.672 1729.76 66.112C1730.32 65.44 1730.88 64.824 1731.44 64.264C1734.35 61.688 1738.16 59.28 1742.86 57.04C1747.68 54.688 1753.05 53.512 1758.99 53.512C1765.37 53.512 1769.35 54.968 1770.92 57.88C1772.48 60.792 1772.6 65.384 1771.25 71.656L1762.68 112.48H1762.52L1762.01 115.168C1763.92 110.912 1766.16 106.712 1768.73 102.568C1771.31 98.312 1774.28 94.56 1777.64 91.312C1781.11 87.952 1784.97 85.264 1789.23 83.248C1793.48 81.12 1798.19 80.056 1803.34 80.056C1809.28 80.056 1814.09 80.952 1817.79 82.744C1821.48 84.424 1824.23 86.944 1826.02 90.304C1827.81 93.664 1828.71 97.864 1828.71 102.904C1828.82 107.832 1828.15 113.6 1826.69 120.208L1826.52 121.216L1818.63 158.848C1818.07 161.76 1818.18 163.664 1818.96 164.56C1819.75 165.456 1821.54 165.512 1824.34 164.728ZM1894.87 80.056C1903.04 79.496 1909.82 80.392 1915.19 82.744C1920.57 85.096 1924.6 88.176 1927.29 91.984C1930.09 95.792 1931.55 100.048 1931.66 104.752C1931.88 109.456 1930.93 113.936 1928.8 118.192C1927.57 120.88 1925.61 123.568 1922.92 126.256C1920.23 128.832 1916.99 131.184 1913.18 133.312C1909.48 135.328 1905.28 137.008 1900.58 138.352C1895.99 139.584 1891.17 140.2 1886.13 140.2C1883.44 140.2 1880.75 140.032 1878.07 139.696C1875.38 139.36 1872.63 138.744 1869.83 137.848C1870.73 146.248 1873.53 152.52 1878.23 156.664C1882.94 160.696 1888.93 162.712 1896.21 162.712C1902.37 162.712 1908.92 161.312 1915.87 158.512C1917.66 157.728 1919 157.784 1919.9 158.68C1920.57 159.688 1920.18 161.032 1918.72 162.712C1917.38 164.056 1915.53 165.736 1913.18 167.752C1910.83 169.656 1907.91 171.56 1904.44 173.464C1901.08 175.256 1897.22 176.824 1892.85 178.168C1888.48 179.512 1883.61 180.184 1878.23 180.184C1871.4 180.184 1865.24 179.064 1859.75 176.824C1854.38 174.472 1849.9 171.28 1846.31 167.248C1842.84 163.104 1840.38 158.176 1838.92 152.464C1837.47 146.752 1837.24 140.48 1838.25 133.648C1839.26 126.368 1841.44 119.592 1844.8 113.32C1848.27 107.048 1852.53 101.504 1857.57 96.688C1862.72 91.872 1868.49 88.008 1874.87 85.096C1881.26 82.184 1887.92 80.504 1894.87 80.056ZM1905.79 111.136C1906.91 108.672 1907.58 106.208 1907.8 103.744C1908.03 101.168 1907.86 98.872 1907.3 96.856C1906.74 94.728 1905.73 92.992 1904.27 91.648C1902.93 90.304 1901.14 89.576 1898.9 89.464C1895.87 89.24 1892.68 90.248 1889.32 92.488C1886.07 94.728 1883.05 97.696 1880.25 101.392C1877.45 105.088 1875.04 109.4 1873.03 114.328C1871.12 119.144 1870 124.072 1869.67 129.112C1870.9 129.336 1872.13 129.504 1873.36 129.616C1874.71 129.728 1876.05 129.784 1877.39 129.784C1879.97 129.784 1882.6 129.504 1885.29 128.944C1887.98 128.384 1890.55 127.376 1893.02 125.92C1895.59 124.464 1897.95 122.56 1900.07 120.208C1902.31 117.856 1904.22 114.832 1905.79 111.136ZM2040.92 164.728C2043.16 164.28 2044.33 164.616 2044.45 165.736C2044.56 166.408 2044.33 167.08 2043.77 167.752C2043.33 168.312 2042.82 168.872 2042.26 169.432C2039.35 172.008 2035.49 174.472 2030.67 176.824C2025.97 179.064 2020.65 180.184 2014.71 180.184C2008.33 180.184 2004.35 178.728 2002.78 175.816C2001.21 172.904 2001.1 168.312 2002.45 162.04L2006.98 141.208L2011.35 120.208C2012.02 116.96 2012.53 113.88 2012.86 110.968C2013.31 107.944 2013.31 105.312 2012.86 103.072C2012.53 100.72 2011.69 98.872 2010.34 97.528C2009 96.072 2006.93 95.344 2004.13 95.344C2000.54 95.344 1997.18 96.968 1994.05 100.216C1990.91 103.464 1988 107.608 1985.31 112.648C1982.73 117.688 1980.38 123.288 1978.25 129.448C1976.13 135.608 1974.22 141.544 1972.54 147.256C1970.97 152.968 1969.69 158.12 1968.68 162.712C1967.67 167.304 1966.94 170.608 1966.49 172.624L1966.66 171.448L1965.82 175.144C1965.6 177.048 1964.48 178 1962.46 178H1936.59C1934.24 178 1933.34 176.88 1933.9 174.64L1942.97 132.136L1949.36 101.392C1949.92 98.48 1949.81 96.576 1949.02 95.68C1948.24 94.784 1946.45 94.728 1943.65 95.512C1941.52 95.96 1940.4 95.624 1940.29 94.504C1940.17 93.384 1940.9 92.152 1942.47 90.808C1945.27 88.232 1949.08 85.824 1953.89 83.584C1958.71 81.232 1964.09 80.056 1970.02 80.056C1976.29 80.056 1980.21 81.512 1981.78 84.424C1983.46 87.336 1983.63 91.928 1982.29 98.2L1978.59 115.336C1980.49 111.08 1982.73 106.88 1985.31 102.736C1987.89 98.48 1990.85 94.672 1994.21 91.312C1997.69 87.952 2001.55 85.264 2005.81 83.248C2010.06 81.12 2014.82 80.056 2020.09 80.056C2031.85 80.056 2039.41 83.472 2042.77 90.304C2046.13 97.136 2046.35 107.104 2043.44 120.208L2043.27 121.216L2035.21 158.848C2034.65 161.76 2034.76 163.664 2035.54 164.56C2036.33 165.456 2038.12 165.512 2040.92 164.728ZM2115.79 82.24C2117.02 82.24 2117.75 82.52 2117.97 83.08C2118.31 83.64 2118.31 84.648 2117.97 86.104C2117.64 87.56 2117.19 88.624 2116.63 89.296C2116.18 89.856 2115.34 90.136 2114.11 90.136H2104.2L2097.48 121.216L2089.41 158.848C2088.85 161.76 2088.97 163.664 2089.75 164.56C2090.53 165.456 2092.33 165.512 2095.12 164.728C2096.36 164.504 2097.2 164.448 2097.65 164.56C2098.09 164.672 2098.37 165.064 2098.49 165.736C2098.71 166.408 2098.54 167.08 2097.98 167.752C2097.53 168.312 2097.03 168.872 2096.47 169.432C2093.56 172.008 2089.69 174.472 2084.88 176.824C2080.17 179.064 2074.85 180.184 2068.92 180.184C2062.53 180.184 2058.56 178.728 2056.99 175.816C2055.42 172.904 2055.31 168.312 2056.65 162.04L2065.22 121.216L2072.28 90.136H2068.41C2067.18 90.136 2066.4 89.856 2066.06 89.296C2065.84 88.624 2065.84 87.56 2066.06 86.104C2066.62 83.528 2068.02 82.24 2070.26 82.24H2074.12L2076.48 71.488C2077.04 69.584 2078.16 68.632 2079.84 68.632C2083.09 68.632 2086.17 68.24 2089.08 67.456C2092.1 66.56 2094.79 65.608 2097.14 64.6C2099.49 63.592 2101.51 62.696 2103.19 61.912C2104.87 61.128 2106.1 60.736 2106.89 60.736C2107.78 60.736 2108.51 60.96 2109.07 61.408C2109.74 61.744 2109.97 62.584 2109.74 63.928L2105.88 82.24H2115.79ZM2157.7 40.744C2163.3 40.744 2167.72 42.312 2170.97 45.448C2174.22 48.584 2175.34 52.504 2174.33 57.208C2173.88 59.448 2172.87 61.576 2171.3 63.592C2169.85 65.608 2168.06 67.344 2165.93 68.8C2163.8 70.256 2161.39 71.432 2158.7 72.328C2156.13 73.112 2153.44 73.504 2150.64 73.504C2145.04 73.504 2140.62 71.936 2137.37 68.8C2134.12 65.664 2132.94 61.8 2133.84 57.208C2134.4 54.856 2135.41 52.728 2136.86 50.824C2138.32 48.808 2140.11 47.072 2142.24 45.616C2144.48 44.048 2146.89 42.872 2149.46 42.088C2152.15 41.192 2154.9 40.744 2157.7 40.744ZM2151.65 80.056C2157.92 80.056 2161.84 81.512 2163.41 84.424C2165.09 87.336 2165.26 91.928 2163.91 98.2L2159.04 121.216L2150.98 158.848C2150.42 161.76 2150.53 163.664 2151.31 164.56C2152.1 165.456 2153.89 165.512 2156.69 164.728C2158.82 164.28 2159.94 164.616 2160.05 165.736C2160.16 166.408 2159.99 167.08 2159.54 167.752C2159.1 168.312 2158.59 168.872 2158.03 169.432C2156.58 170.664 2154.84 171.952 2152.82 173.296C2150.92 174.528 2148.79 175.648 2146.44 176.656C2144.09 177.664 2141.57 178.504 2138.88 179.176C2136.19 179.848 2133.39 180.184 2130.48 180.184C2124.1 180.184 2120.06 178.728 2118.38 175.816C2116.82 172.904 2116.7 168.312 2118.05 162.04L2126.78 121.216L2130.98 101.392C2131.54 98.48 2131.43 96.576 2130.65 95.68C2129.86 94.784 2128.07 94.728 2125.27 95.512C2123.14 95.96 2122.02 95.624 2121.91 94.504C2121.8 93.384 2122.53 92.152 2124.1 90.808C2126.9 88.232 2130.7 85.824 2135.52 83.584C2140.34 81.232 2145.71 80.056 2151.65 80.056ZM2230.93 84.928C2227.23 85.152 2223.76 86.832 2220.51 89.968C2217.37 92.992 2214.63 96.856 2212.28 101.56C2210.04 106.264 2208.3 111.472 2207.07 117.184C2205.84 122.896 2205.39 128.552 2205.73 134.152C2205.95 138.408 2206.79 142.216 2208.25 145.576C2209.7 148.936 2211.66 151.792 2214.13 154.144C2216.7 156.384 2219.67 158.12 2223.03 159.352C2226.39 160.584 2230.03 161.2 2233.95 161.2C2238.77 161.2 2243.92 160.248 2249.41 158.344C2251.42 157.672 2252.77 157.728 2253.44 158.512C2254.11 159.52 2253.72 160.864 2252.26 162.544C2251.03 163.888 2249.18 165.568 2246.72 167.584C2244.37 169.6 2241.45 171.56 2237.98 173.464C2234.62 175.256 2230.76 176.824 2226.39 178.168C2222.02 179.512 2217.15 180.184 2211.77 180.184C2204.83 180.184 2198.67 179.008 2193.29 176.656C2187.92 174.192 2183.49 170.832 2180.02 166.576C2176.55 162.208 2174.09 157.112 2172.63 151.288C2171.29 145.352 2171.12 138.912 2172.13 131.968C2173.02 125.584 2175.09 119.312 2178.34 113.152C2181.59 106.992 2185.85 101.504 2191.11 96.688C2196.37 91.872 2202.42 87.952 2209.25 84.928C2216.2 81.792 2223.7 80.168 2231.77 80.056C2239.16 79.832 2245.21 80.616 2249.91 82.408C2254.61 84.088 2258.2 86.272 2260.66 88.96C2263.13 91.648 2264.64 94.616 2265.2 97.864C2265.76 101 2265.59 103.968 2264.69 106.768C2263.8 109.568 2262.29 111.92 2260.16 113.824C2258.03 115.728 2255.62 116.792 2252.93 117.016C2248.79 117.24 2245.82 116.624 2244.03 115.168C2242.35 113.6 2241.29 111.584 2240.84 109.12C2240.39 106.656 2240.28 103.968 2240.5 101.056C2240.84 98.144 2240.89 95.456 2240.67 92.992C2240.45 90.528 2239.66 88.512 2238.32 86.944C2236.97 85.376 2234.51 84.704 2230.93 84.928Z" fill="#FEF7ED"/>
</svg>
