<svg width="20" height="25" viewBox="0 0 20 25" fill="none" xmlns="http://www.w3.org/2000/svg">
<path d="M7.60374 20.7976C8.19187 20.6731 11.7756 20.6731 12.3638 20.7976C12.8665 20.9137 13.4102 21.185 13.4102 21.7775C13.381 22.3415 13.0501 22.8415 12.5929 23.159C12.0001 23.6212 11.3044 23.9138 10.5771 24.0193C10.1749 24.0714 9.77971 24.0726 9.39152 24.0193C8.66308 23.9138 7.96738 23.6212 7.37574 23.1579C6.91739 22.8415 6.58649 22.3415 6.55726 21.7775C6.55726 21.185 7.10097 20.9137 7.60374 20.7976ZM10.0532 0.529419C12.5004 0.529419 15.0003 1.69062 16.4852 3.61726C17.4487 4.85785 17.8907 6.09725 17.8907 8.02389V8.5251C17.8907 10.0027 18.2812 10.8736 19.1406 11.8772C19.7919 12.6166 20 13.5657 20 14.5953C20 15.6238 19.6621 16.6002 18.9851 17.3929C18.0988 18.3432 16.8489 18.9498 15.5732 19.0553C13.7246 19.2129 11.8749 19.3456 10.0006 19.3456C8.12511 19.3456 6.27653 19.2662 4.42795 19.0553C3.15113 18.9498 1.9012 18.3432 1.01608 17.3929C0.339082 16.6002 0 15.6238 0 14.5953C0 13.5657 0.209296 12.6166 0.859398 11.8772C1.74569 10.8736 2.11049 10.0027 2.11049 8.5251V8.02389C2.11049 6.04511 2.60392 4.75121 3.61999 3.48455C5.13066 1.6373 7.55218 0.529419 9.94797 0.529419H10.0532Z" fill="#B68D2E"/>
<path d="M7 10.5906C7 10.5906 8.40194 12.1536 8.68831 11.9877C9.71701 11.3915 12.1438 8.80241 13 8" stroke="white" stroke-opacity="0.72" stroke-width="2" stroke-linecap="round"/>
</svg>
