<svg width="20" height="24" viewBox="0 0 20 24" fill="none" xmlns="http://www.w3.org/2000/svg">
<path d="M7.60374 20.2681C8.19187 20.1437 11.7756 20.1437 12.3638 20.2681C12.8665 20.3843 13.4102 20.6556 13.4102 21.248C13.381 21.8121 13.0501 22.3121 12.5929 22.6296C12.0001 23.0917 11.3044 23.3844 10.5771 23.4899C10.1749 23.542 9.77971 23.5432 9.39152 23.4899C8.66308 23.3844 7.96738 23.0917 7.37574 22.6284C6.91739 22.3121 6.58649 21.8121 6.55726 21.248C6.55726 20.6556 7.10097 20.3843 7.60374 20.2681ZM10.0532 0C12.5004 0 15.0003 1.1612 16.4852 3.08784C17.4487 4.32843 17.8907 5.56783 17.8907 7.49447V7.99568C17.8907 9.47325 18.2812 10.3441 19.1406 11.3478C19.7919 12.0871 20 13.0362 20 14.0659C20 15.0944 19.6621 16.0708 18.9851 16.8634C18.0988 17.8137 16.8489 18.4204 15.5732 18.5259C13.7246 18.6835 11.8749 18.8162 10.0006 18.8162C8.12511 18.8162 6.27653 18.7368 4.42795 18.5259C3.15113 18.4204 1.9012 17.8137 1.01608 16.8634C0.339082 16.0708 0 15.0944 0 14.0659C0 13.0362 0.209296 12.0871 0.859398 11.3478C1.74569 10.3441 2.11049 9.47325 2.11049 7.99568V7.49447C2.11049 5.51569 2.60392 4.22179 3.61999 2.95513C5.13066 1.10788 7.55218 0 9.94797 0H10.0532Z" fill="#B68D2E"/>
</svg>
