<svg width="257" height="238" viewBox="0 0 257 238" fill="none" xmlns="http://www.w3.org/2000/svg">
<g filter="url(#filter0_b_126_1053)">
<path d="M243.297 1L143.797 74.9L162.197 31.3L243.297 1Z" fill="#DED1D5" fill-opacity="0.36"/>
<path d="M243.297 1L143.797 74.9L162.197 31.3L243.297 1Z" stroke="#B5B5B5" stroke-opacity="0.8" stroke-linecap="round" stroke-linejoin="round"/>
</g>
<g filter="url(#filter1_b_126_1053)">
<path d="M13.6016 1L112.302 75.6L94.8016 31.3L13.6016 1ZM207.502 172.3L181.002 212.9L237.702 228.5L254.002 173.2L207.502 172.3ZM3.10156 173.2L19.3016 228.5L76.0016 212.9L49.5016 172.3L3.10156 173.2Z" fill="#DED1D5" fill-opacity="0.36"/>
<path d="M13.6016 1L112.302 75.6L94.8016 31.3L13.6016 1ZM207.502 172.3L181.002 212.9L237.702 228.5L254.002 173.2L207.502 172.3ZM3.10156 173.2L19.3016 228.5L76.0016 212.9L49.5016 172.3L3.10156 173.2Z" stroke="#B5B5B5" stroke-opacity="0.8" stroke-linecap="round" stroke-linejoin="round"/>
</g>
<g filter="url(#filter2_b_126_1053)">
<path d="M72.8 103.7L57 127.6L113.3 130.1L111.3 69.5999L72.8 103.7ZM184.1 103.7L145.1 68.8999L143.8 130.1L200 127.6L184.1 103.7ZM76 212.9L109.8 196.4L80.6 173.6L76 212.9ZM147.1 196.4L181 212.9L176.3 173.6L147.1 196.4Z" fill="#DED1D5" fill-opacity="0.36"/>
<path d="M72.8 103.7L57 127.6L113.3 130.1L111.3 69.5999L72.8 103.7ZM184.1 103.7L145.1 68.8999L143.8 130.1L200 127.6L184.1 103.7ZM76 212.9L109.8 196.4L80.6 173.6L76 212.9ZM147.1 196.4L181 212.9L176.3 173.6L147.1 196.4Z" stroke="#B5B5B5" stroke-opacity="0.8" stroke-linecap="round" stroke-linejoin="round"/>
</g>
<g filter="url(#filter3_b_126_1053)">
<path d="M181 212.9L147.1 196.4L149.8 218.5L149.5 227.8L181 212.9ZM76 212.9L107.5 227.8L107.3 218.5L109.8 196.4L76 212.9Z" fill="#DED1D5" fill-opacity="0.36"/>
<path d="M181 212.9L147.1 196.4L149.8 218.5L149.5 227.8L181 212.9ZM76 212.9L107.5 227.8L107.3 218.5L109.8 196.4L76 212.9Z" stroke="#B5B5B5" stroke-opacity="0.8" stroke-linecap="round" stroke-linejoin="round"/>
</g>
<g filter="url(#filter4_b_126_1053)">
<path d="M107.997 159L79.7969 150.7L99.6969 141.6L107.997 159ZM148.897 159L157.197 141.6L177.197 150.7L148.897 159Z" fill="#DED1D5" fill-opacity="0.36"/>
<path d="M107.997 159L79.7969 150.7L99.6969 141.6L107.997 159ZM148.897 159L157.197 141.6L177.197 150.7L148.897 159Z" stroke="#B5B5B5" stroke-opacity="0.8" stroke-linecap="round" stroke-linejoin="round"/>
</g>
<g filter="url(#filter5_b_126_1053)">
<path d="M76 212.9L80.8 172.3L49.5 173.2L76 212.9ZM176.2 172.3L181 212.9L207.5 173.2L176.2 172.3ZM200 127.6L143.8 130.1L149 159L157.3 141.6L177.3 150.7L200 127.6ZM79.8 150.7L99.8 141.6L108 159L113.3 130.1L57 127.6L79.8 150.7Z" fill="#DED1D5" fill-opacity="0.36"/>
<path d="M76 212.9L80.8 172.3L49.5 173.2L76 212.9ZM176.2 172.3L181 212.9L207.5 173.2L176.2 172.3ZM200 127.6L143.8 130.1L149 159L157.3 141.6L177.3 150.7L200 127.6ZM79.8 150.7L99.8 141.6L108 159L113.3 130.1L57 127.6L79.8 150.7Z" stroke="#B5B5B5" stroke-opacity="0.8" stroke-linecap="round" stroke-linejoin="round"/>
</g>
<g filter="url(#filter6_b_126_1053)">
<path d="M57 127.6L80.6 173.6L79.8 150.7L57 127.6ZM177.3 150.7L176.3 173.6L200 127.6L177.3 150.7ZM113.3 130.1L108 159L114.6 193.1L116.1 148.2L113.3 130.1ZM143.8 130.1L141.1 148.1L142.3 193.1L149 159L143.8 130.1Z" fill="#DED1D5" fill-opacity="0.36"/>
<path d="M57 127.6L80.6 173.6L79.8 150.7L57 127.6ZM177.3 150.7L176.3 173.6L200 127.6L177.3 150.7ZM113.3 130.1L108 159L114.6 193.1L116.1 148.2L113.3 130.1ZM143.8 130.1L141.1 148.1L142.3 193.1L149 159L143.8 130.1Z" stroke="#B5B5B5" stroke-opacity="0.8" stroke-linecap="round" stroke-linejoin="round"/>
</g>
<g filter="url(#filter7_b_126_1053)">
<path d="M148.997 159L142.297 193.1L147.097 196.4L176.297 173.6L177.297 150.7L148.997 159ZM79.7969 150.7L80.5969 173.6L109.797 196.4L114.597 193.1L107.997 159L79.7969 150.7Z" fill="#DED1D5" fill-opacity="0.36"/>
<path d="M148.997 159L142.297 193.1L147.097 196.4L176.297 173.6L177.297 150.7L148.997 159ZM79.7969 150.7L80.5969 173.6L109.797 196.4L114.597 193.1L107.997 159L79.7969 150.7Z" stroke="#B5B5B5" stroke-opacity="0.8" stroke-linecap="round" stroke-linejoin="round"/>
</g>
<g filter="url(#filter8_b_126_1053)">
<path d="M149.5 227.8L149.8 218.5L147.3 216.3H109.6L107.3 218.5L107.5 227.8L76 212.9L87 221.9L109.3 237.4H147.6L170 221.9L181 212.9L149.5 227.8Z" fill="#DED1D5" fill-opacity="0.36"/>
<path d="M149.5 227.8L149.8 218.5L147.3 216.3H109.6L107.3 218.5L107.5 227.8L76 212.9L87 221.9L109.3 237.4H147.6L170 221.9L181 212.9L149.5 227.8Z" stroke="#B5B5B5" stroke-opacity="0.8" stroke-linecap="round" stroke-linejoin="round"/>
</g>
<g filter="url(#filter9_b_126_1053)">
<path d="M147.097 196.4L142.297 193.1H114.597L109.797 196.4L107.297 218.5L109.597 216.3H147.297L149.797 218.5L147.097 196.4Z" fill="#AB8F96" fill-opacity="0.36"/>
<path d="M147.097 196.4L142.297 193.1H114.597L109.797 196.4L107.297 218.5L109.597 216.3H147.297L149.797 218.5L147.097 196.4Z" stroke="#B5B5B5" stroke-opacity="0.8" stroke-linecap="round" stroke-linejoin="round"/>
</g>
<g filter="url(#filter10_b_126_1053)">
<path d="M247.5 79.7L256 38.9L243.3 1L147.1 72.4L184.1 103.7L236.4 119L248 105.5L243 101.9L251 94.6L244.8 89.8L252.8 83.7L247.5 79.7ZM1 38.9L9.5 79.7L4.1 83.7L12.1 89.8L6 94.6L14 101.9L9 105.5L20.5 119L72.8 103.7L109.8 72.4L13.6 1L1 38.9Z" fill="#DED1D5" fill-opacity="0.36"/>
<path d="M247.5 79.7L256 38.9L243.3 1L147.1 72.4L184.1 103.7L236.4 119L248 105.5L243 101.9L251 94.6L244.8 89.8L252.8 83.7L247.5 79.7ZM1 38.9L9.5 79.7L4.1 83.7L12.1 89.8L6 94.6L14 101.9L9 105.5L20.5 119L72.8 103.7L109.8 72.4L13.6 1L1 38.9Z" stroke="#B5B5B5" stroke-opacity="0.8" stroke-linecap="round" stroke-linejoin="round"/>
</g>
<g filter="url(#filter11_b_126_1053)">
<path d="M236.402 119L184.102 103.7L200.002 127.6L176.302 173.6L207.502 173.2H254.002L236.402 119ZM72.8016 103.7L20.5016 119L3.10156 173.2H49.5016L80.6016 173.6L57.0016 127.6L72.8016 103.7ZM143.802 130.1L147.102 72.3998L162.302 31.2998H94.8016L109.802 72.3998L113.302 130.1L114.502 148.3L114.602 193.1H142.302L142.502 148.3L143.802 130.1Z" fill="#DED1D5" fill-opacity="0.36"/>
<path d="M236.402 119L184.102 103.7L200.002 127.6L176.302 173.6L207.502 173.2H254.002L236.402 119ZM72.8016 103.7L20.5016 119L3.10156 173.2H49.5016L80.6016 173.6L57.0016 127.6L72.8016 103.7ZM143.802 130.1L147.102 72.3998L162.302 31.2998H94.8016L109.802 72.3998L113.302 130.1L114.502 148.3L114.602 193.1H142.302L142.502 148.3L143.802 130.1Z" stroke="#B5B5B5" stroke-opacity="0.8" stroke-linecap="round" stroke-linejoin="round"/>
</g>
<defs>
<filter id="filter0_b_126_1053" x="-21.7031" y="-164.5" width="430.5" height="404.9" filterUnits="userSpaceOnUse" color-interpolation-filters="sRGB">
<feFlood flood-opacity="0" result="BackgroundImageFix"/>
<feGaussianBlur in="BackgroundImageFix" stdDeviation="82.5"/>
<feComposite in2="SourceAlpha" operator="in" result="effect1_backgroundBlur_126_1053"/>
<feBlend mode="normal" in="SourceGraphic" in2="effect1_backgroundBlur_126_1053" result="shape"/>
</filter>
<filter id="filter1_b_126_1053" x="-162.398" y="-164.5" width="581.898" height="558.5" filterUnits="userSpaceOnUse" color-interpolation-filters="sRGB">
<feFlood flood-opacity="0" result="BackgroundImageFix"/>
<feGaussianBlur in="BackgroundImageFix" stdDeviation="82.5"/>
<feComposite in2="SourceAlpha" operator="in" result="effect1_backgroundBlur_126_1053"/>
<feBlend mode="normal" in="SourceGraphic" in2="effect1_backgroundBlur_126_1053" result="shape"/>
</filter>
<filter id="filter2_b_126_1053" x="-108.5" y="-96.6001" width="474" height="475" filterUnits="userSpaceOnUse" color-interpolation-filters="sRGB">
<feFlood flood-opacity="0" result="BackgroundImageFix"/>
<feGaussianBlur in="BackgroundImageFix" stdDeviation="82.5"/>
<feComposite in2="SourceAlpha" operator="in" result="effect1_backgroundBlur_126_1053"/>
<feBlend mode="normal" in="SourceGraphic" in2="effect1_backgroundBlur_126_1053" result="shape"/>
</filter>
<filter id="filter3_b_126_1053" x="-89.5" y="30.8999" width="436" height="362.4" filterUnits="userSpaceOnUse" color-interpolation-filters="sRGB">
<feFlood flood-opacity="0" result="BackgroundImageFix"/>
<feGaussianBlur in="BackgroundImageFix" stdDeviation="82.5"/>
<feComposite in2="SourceAlpha" operator="in" result="effect1_backgroundBlur_126_1053"/>
<feBlend mode="normal" in="SourceGraphic" in2="effect1_backgroundBlur_126_1053" result="shape"/>
</filter>
<filter id="filter4_b_126_1053" x="-85.7031" y="-23.8999" width="428.398" height="348.4" filterUnits="userSpaceOnUse" color-interpolation-filters="sRGB">
<feFlood flood-opacity="0" result="BackgroundImageFix"/>
<feGaussianBlur in="BackgroundImageFix" stdDeviation="82.5"/>
<feComposite in2="SourceAlpha" operator="in" result="effect1_backgroundBlur_126_1053"/>
<feBlend mode="normal" in="SourceGraphic" in2="effect1_backgroundBlur_126_1053" result="shape"/>
</filter>
<filter id="filter5_b_126_1053" x="-116" y="-37.8999" width="489" height="416.3" filterUnits="userSpaceOnUse" color-interpolation-filters="sRGB">
<feFlood flood-opacity="0" result="BackgroundImageFix"/>
<feGaussianBlur in="BackgroundImageFix" stdDeviation="82.5"/>
<feComposite in2="SourceAlpha" operator="in" result="effect1_backgroundBlur_126_1053"/>
<feBlend mode="normal" in="SourceGraphic" in2="effect1_backgroundBlur_126_1053" result="shape"/>
</filter>
<filter id="filter6_b_126_1053" x="-108.5" y="-37.8999" width="474" height="396.5" filterUnits="userSpaceOnUse" color-interpolation-filters="sRGB">
<feFlood flood-opacity="0" result="BackgroundImageFix"/>
<feGaussianBlur in="BackgroundImageFix" stdDeviation="82.5"/>
<feComposite in2="SourceAlpha" operator="in" result="effect1_backgroundBlur_126_1053"/>
<feBlend mode="normal" in="SourceGraphic" in2="effect1_backgroundBlur_126_1053" result="shape"/>
</filter>
<filter id="filter7_b_126_1053" x="-85.7031" y="-14.7998" width="428.5" height="376.7" filterUnits="userSpaceOnUse" color-interpolation-filters="sRGB">
<feFlood flood-opacity="0" result="BackgroundImageFix"/>
<feGaussianBlur in="BackgroundImageFix" stdDeviation="82.5"/>
<feComposite in2="SourceAlpha" operator="in" result="effect1_backgroundBlur_126_1053"/>
<feBlend mode="normal" in="SourceGraphic" in2="effect1_backgroundBlur_126_1053" result="shape"/>
</filter>
<filter id="filter8_b_126_1053" x="-89.5" y="47.3999" width="436" height="355.5" filterUnits="userSpaceOnUse" color-interpolation-filters="sRGB">
<feFlood flood-opacity="0" result="BackgroundImageFix"/>
<feGaussianBlur in="BackgroundImageFix" stdDeviation="82.5"/>
<feComposite in2="SourceAlpha" operator="in" result="effect1_backgroundBlur_126_1053"/>
<feBlend mode="normal" in="SourceGraphic" in2="effect1_backgroundBlur_126_1053" result="shape"/>
</filter>
<filter id="filter9_b_126_1053" x="-58.2031" y="27.6001" width="373.5" height="356.4" filterUnits="userSpaceOnUse" color-interpolation-filters="sRGB">
<feFlood flood-opacity="0" result="BackgroundImageFix"/>
<feGaussianBlur in="BackgroundImageFix" stdDeviation="82.5"/>
<feComposite in2="SourceAlpha" operator="in" result="effect1_backgroundBlur_126_1053"/>
<feBlend mode="normal" in="SourceGraphic" in2="effect1_backgroundBlur_126_1053" result="shape"/>
</filter>
<filter id="filter10_b_126_1053" x="-164.5" y="-164.5" width="586" height="449" filterUnits="userSpaceOnUse" color-interpolation-filters="sRGB">
<feFlood flood-opacity="0" result="BackgroundImageFix"/>
<feGaussianBlur in="BackgroundImageFix" stdDeviation="82.5"/>
<feComposite in2="SourceAlpha" operator="in" result="effect1_backgroundBlur_126_1053"/>
<feBlend mode="normal" in="SourceGraphic" in2="effect1_backgroundBlur_126_1053" result="shape"/>
</filter>
<filter id="filter11_b_126_1053" x="-162.398" y="-134.2" width="581.898" height="492.8" filterUnits="userSpaceOnUse" color-interpolation-filters="sRGB">
<feFlood flood-opacity="0" result="BackgroundImageFix"/>
<feGaussianBlur in="BackgroundImageFix" stdDeviation="82.5"/>
<feComposite in2="SourceAlpha" operator="in" result="effect1_backgroundBlur_126_1053"/>
<feBlend mode="normal" in="SourceGraphic" in2="effect1_backgroundBlur_126_1053" result="shape"/>
</filter>
</defs>
</svg>
