<svg width="50" height="38" viewBox="0 0 50 38" fill="none" xmlns="http://www.w3.org/2000/svg">
<path d="M24.7627 0C30.8178 0 35.0453 4.17259 35.0453 10.1523V27.3477C35.0453 33.3274 30.8178 37.5 24.7627 37.5H10.2826C4.22754 37.5 0 33.3274 0 27.3477V10.1523C0 4.17259 4.22754 0 10.2826 0H24.7627ZM44.8949 5.94746C45.9925 5.38909 47.28 5.44746 48.3275 6.10736C49.375 6.76472 50 7.90685 50 9.15558V28.3459C50 29.5972 49.375 30.7368 48.3275 31.3942C47.755 31.752 47.115 31.9348 46.47 31.9348C45.9325 31.9348 45.395 31.8079 44.8924 31.5515L41.1899 29.6835C39.8199 28.9881 38.9699 27.5921 38.9699 26.0414V11.4576C38.9699 9.90431 39.8199 8.50838 41.1899 7.81802L44.8949 5.94746Z" fill="#B68D2E"/>
</svg>
